<svg viewBox="267.5664 277.6768 380 151.6464" width="5000" height="1995.3473684210526" xmlns="http://www.w3.org/2000/svg" xmlns:xlink="http://www.w3.org/1999/xlink" preserveAspectRatio="none"><defs></defs><style>.a60p5ZquTEfillColor {fill:#F1F1F1;fill-opacity:0;}.ahs7pIl34ofillColor {fill:#0A0A0A;fill-opacity:0.1;}.background {fill:#212D94;fill-opacity:1;}.companyName {fill:#F1F1F1;fill-opacity:1;}.icon3-str {stroke:#0A0A0A;stroke-opacity:1;}.shapeStroke-str {stroke:#0A0A0A;stroke-opacity:1;}.text-str {stroke:#F1F1F1;stroke-opacity:1;}</style><defs>
      <filter
        x="267.5664"
        y="277.6768"
        width="380"
        height="151.6464"
        id="global"
        filterUnits="userSpaceOnUse"
        primitiveUnits="userSpaceOnUse"
        color-interpolation-filters="sRGB">
        <feColorMatrix
                        type="matrix"
                        values="0.3333 0.3333 0.3333 0 0 0.3333 0.3333 0.3333 0 0 0.3333 0.3333 0.3333 0 0 0 0 0 1 0"/><feColorMatrix
                        type="matrix"
                        values="-1 0 0 0 1 0 -1 0 0 1 0 0 -1 0 1 0 0 0 1 0"/>
      </filter></defs><g filter="url(#global)"><g opacity="1" transform="rotate(0 267.5664 277.6768)">
<svg width="190" height="151.6464" x="267.5664" y="277.6768" version="1.1" preserveAspectRatio="none" viewBox="0 0 190 151.6464">
  <rect x="9.4779" y="9.4779" width="171.0442" height="132.6906" class="a60p5ZquTEfillColor text-str" style="stroke-width:18.9558;" rx="0px" ry="0px" />
</svg>
</g><g opacity="1" transform="rotate(0 457.5664 277.6768)">
<svg width="190" height="151.6464" x="457.5664" y="277.6768" version="1.1" preserveAspectRatio="none" viewBox="0 0 190 151.6464">
  <rect x="9.4779" y="9.4779" width="171.0442" height="132.6906" class="ahs7pIl34ofillColor icon3-str" style="stroke-width:18.9558;" rx="0px" ry="0px" />
</svg>
</g><g opacity="1" transform="rotate(0 275.5478 285.6582)">
<svg width="364.0372" height="135.6836" x="275.5478" y="285.6582" version="1.1" preserveAspectRatio="none" viewBox="0 0 364.0372 135.6836">
  <rect x="0" y="0" width="364.0372" height="135.6836" class="background shapeStroke-str" style="stroke-width:0;" rx="0px" ry="0px" />
</svg>
</g><g opacity="1" transform="rotate(0 307.4733 325.5651)">
<svg width="300.1862" height="55.8697" x="307.4733" y="325.5651" version="1.1" preserveAspectRatio="none" viewBox="4 -31.2 170 31.64">
  <g transform="matrix(1 0 0 1 0 0)" class="companyName"><path id="id-D6z1nYkh9" d="M12.24-29.12Q17.20-29.12 20-26.64Q22.80-24.16 22.80-19.76L22.80-19.76Q22.80-17.24 21.80-15.06Q20.80-12.88 18.58-11.50Q16.36-10.12 12.88-10.12L12.88-10.12L8.68-10.12L8.68 0L4 0L4-29.12L12.24-29.12ZM12.88-14.60Q14.80-14.60 15.98-15.42Q17.16-16.24 17.66-17.42Q18.16-18.60 18.16-19.68L18.16-19.68Q18.16-21.52 16.98-23.08Q15.80-24.64 13-24.64L13-24.64L8.68-24.64L8.68-14.60L12.88-14.60Z M29.52-16.92L34-16.92L34 0L29.52 0L29.52-16.92ZM29.32-22.96Q29.32-23.96 30.12-24.66Q30.92-25.36 31.92-25.36L31.92-25.36Q32.88-25.36 33.66-24.66Q34.44-23.96 34.44-22.96L34.44-22.96Q34.44-21.96 33.66-21.28Q32.88-20.60 31.92-20.60L31.92-20.60Q30.92-20.60 30.12-21.28Q29.32-21.96 29.32-22.96L29.32-22.96Z M56.16-1.56Q55.04-0.64 53.42-0.10Q51.80 0.44 50.16 0.44L50.16 0.44Q47.36 0.44 45.22-0.64Q43.08-1.72 41.92-3.74Q40.76-5.76 40.76-8.48L40.76-8.48Q40.76-11.16 42-13.18Q43.24-15.20 45.30-16.28Q47.36-17.36 49.72-17.36L49.72-17.36Q53.72-17.36 56.32-15.20L56.32-15.20L54.08-12.28Q53.32-12.88 52.30-13.30Q51.28-13.72 50.12-13.72L50.12-13.72Q48.08-13.72 46.66-12.22Q45.24-10.72 45.24-8.48L45.24-8.48Q45.24-6.24 46.74-4.74Q48.24-3.24 50.56-3.24L50.56-3.24Q52.56-3.24 53.92-4.36L53.92-4.36L56.16-1.56Z M76.36-16.92L80.48-16.92L80.48 0L76 0L76-2.44Q75.08-1.36 73.52-0.46Q71.96 0.44 69.88 0.44L69.88 0.44Q67.44 0.44 65.52-0.58Q63.60-1.60 62.48-3.60Q61.36-5.60 61.36-8.44L61.36-8.44Q61.36-11.20 62.52-13.30Q63.68-15.40 65.62-16.54Q67.56-17.68 69.88-17.68L69.88-17.68Q74-17.68 76.04-14.64L76.04-14.64L76.36-16.92ZM71.12-3.24Q72.96-3.24 74.22-4.18Q75.48-5.12 76-6.84L76-6.84L76-10.52Q75.52-12.08 74.14-13.04Q72.76-14 70.96-14L70.96-14Q68.84-14 67.36-12.50Q65.88-11 65.88-8.68L65.88-8.68Q65.88-7.16 66.60-5.92Q67.32-4.68 68.52-3.96Q69.72-3.24 71.12-3.24L71.12-3.24Z M88.68-31.20L93.16-31.20L93.16 0L88.68 0L88.68-31.20Z M101.32-31.20L105.80-31.20L105.80 0L101.32 0L101.32-31.20Z M122.12-3.40Q124-3.40 125.92-4.72L125.92-4.72L127.96-1.40Q126.60-0.56 125.04-0.06Q123.48 0.44 122.04 0.44L122.04 0.44Q119.12 0.44 116.98-0.72Q114.84-1.88 113.70-3.92Q112.56-5.96 112.56-8.60L112.56-8.60Q112.56-11.08 113.84-13.16Q115.12-15.24 117.32-16.46Q119.52-17.68 122.12-17.68L122.12-17.68Q125.56-17.68 127.84-15.66Q130.12-13.64 130.88-9.96L130.88-9.96L117.84-5.56Q118.52-4.52 119.64-3.96Q120.76-3.40 122.12-3.40L122.12-3.40ZM121.76-14.16Q119.64-14.16 118.30-12.68Q116.96-11.20 116.96-8.84L116.96-8.84Q116.96-8.40 117-8.16L117-8.16L125.88-11.32Q125.36-12.56 124.36-13.36Q123.36-14.16 121.76-14.16L121.76-14.16Z M148.32-17.64Q150.68-17.64 152.26-16.22Q153.84-14.80 153.88-12.56L153.88-12.56L153.88 0L149.40 0L149.40-10.96Q149.32-12.28 148.62-13.04Q147.92-13.80 146.52-13.84L146.52-13.84Q144.44-13.84 143.10-12.06Q141.76-10.28 141.76-7.52L141.76-7.52L141.76 0L137.28 0L137.28-16.92L141.32-16.92L141.64-13.92Q142.56-15.68 144.30-16.66Q146.04-17.64 148.32-17.64L148.32-17.64Z M167.12 0.36Q165.16 0.36 163.42-0.34Q161.68-1.04 160.56-2.32L160.56-2.32L162.44-4.84Q164.56-2.76 166.76-2.76L166.76-2.76Q167.96-2.76 168.74-3.22Q169.52-3.68 169.52-4.60L169.52-4.60Q169.52-5.56 168.72-6.04Q167.92-6.52 166.94-6.82Q165.96-7.12 165.68-7.20L165.68-7.20Q163.48-7.88 162.40-9.18Q161.32-10.48 161.32-12.24L161.32-12.24Q161.32-13.64 162.02-14.86Q162.72-16.08 164.14-16.84Q165.56-17.60 167.60-17.60L167.60-17.60Q169.52-17.60 170.94-17.16Q172.36-16.72 173.60-15.76L173.60-15.76L171.88-13.08Q171.16-13.76 170.14-14.16Q169.12-14.56 168.28-14.56L168.28-14.56Q167.24-14.56 166.56-14.08Q165.88-13.60 165.88-12.84L165.88-12.84Q165.84-11.92 166.56-11.46Q167.28-11 168.88-10.48L168.88-10.48Q169.56-10.28 169.76-10.20L169.76-10.20Q171.76-9.56 172.88-8.42Q174.00-7.28 174.00-5.44L174.00-5.44Q174.00-2.96 172.22-1.30Q170.44 0.36 167.12 0.36L167.12 0.36Z"/></g>
</svg>
</g></g></svg>